{"title":"The Heat 2013 DVD-R (RLG)","uid":9324784,"size":4697870336,"categoryP":"video","categoryS":"movies_dvdr","magnet":"?xt=urn:btih:20cd3f9ebaa953f76e5e8293fcdc2051d37f3772&amp;dn=The+Heat+2013+DVD-R+%28RLG%29&amp;tr=udp%3A%2F%2Ftracker.openbittorrent.com%3A80&amp;tr=udp%3A%2F%2Fopen.demonii.com%3A1337&amp;tr=udp%3A%2F%2Ftracker.coppersurfer.tk%3A6969&amp;tr=udp%3A%2F%2Fexodus.desync.com%3A6969","seeders":0,"leechers":1,"uploader":"RedLegsGreaves","files":-1,"time":1386614832,"description":" &lt;a href=&quot;http://www.imdb.com/title/tt2404463/?ref_=fn_al_tt_1&quot; rel=&quot;nofollow&quot; target=&quot;_NEW&quot;&gt;http://www.imdb.com/title/tt2404463/?ref_=fn_al_tt_1&lt;/a&gt;\nAn uptight FBI Special Agent is paired with a foul-mouthed Boston cop to take down a ruthless drug lord.\n\nLanguage: English\nSubtitles: English, Russian, Romanian, Estonian, Latvian, Serbian, Croatian, Slovenian, Ukrainian, Spanish (Latin America), Lithuanian\n\nFor Newer Users.\nSimply Drag downloaded folder to your Media Player. This is a PAL DVD.\nThis is ripped so you would have best quality, menu, bonus/special feature, language options etc. \n(may or may not have all features)\n\n\nVideo\nID : 224 (0xE0)\nFormat : MPEG Video\nFormat version : Version 2\nFormat profile : Main@Main\nFormat settings, BVOP : Yes\nFormat settings, Matrix : Custom\nFormat settings, GOP : Variable\nDuration : 28mn 35s\nBit rate mode : Variable\nBit rate : 4 458 Kbps\nMaximum bit rate : 6 833 Kbps\nWidth : 720 pixels\nHeight : 576 pixels\nDisplay aspect ratio : 16:9\nFrame rate : 25.000 fps\nStandard : PAL\nColor space : YUV\nChroma subsampling : 4:2:0\nBit depth : 8 bits\nScan type : Progressive\nScan order : Top Field First\nCompression mode : Lossy\nBits/(Pixel*Frame) : 0.430\nTime code of first frame : 00:28:28:17\nTime code source : Group of pictures header\nStream size : 912 MiB (89%)\n\nAudio\nID : 189 (0xBD)-128 (0x80)\nFormat : AC-3\nFormat/Info : Audio Coding 3\nMode extension : CM (complete main)\nFormat settings, Endianness : Big\nMuxing mode : DVD-Video\nDuration : 28mn 35s\nBit rate mode : Constant\nBit rate : 448 Kbps\nChannel count : 6 channels\nChannel positions : Front: L C R, Side: L R, LFE\nSampling rate : 48.0 KHz\nBit depth : 16 bits\nCompression mode : Lossy\nDelay relative to video : -440ms\nStream size : 91.6 MiB (9%)\n","torrent":{"xt":"urn:btih:20cd3f9ebaa953f76e5e8293fcdc2051d37f3772","amp;dn":"The+Heat+2013+DVD-R+%28RLG%29","amp;tr":["udp%3A%2F%2Ftracker.openbittorrent.com%3A80","udp%3A%2F%2Fopen.demonii.com%3A1337","udp%3A%2F%2Ftracker.coppersurfer.tk%3A6969","udp%3A%2F%2Fexodus.desync.com%3A6969"],"infoHash":"20cd3f9ebaa953f76e5e8293fcdc2051d37f3772","infoHashBuffer":{"type":"Buffer","data":[32,205,63,158,186,169,83,247,110,94,130,147,252,220,32,81,211,127,55,114]},"announce":[],"urlList":[]}}